# xmcd CD database file
#
# Track frame offsets:
#	183
#	11680
#	23165
#	37015
#	57740
#	87990
#	102760
#	116438
#	130285
#	145535
#	166133
#	178328
#	197380
#	213283
#	227170
#	257585
#
# Disc length: 3625 seconds
#
# Revision: 1
# Processed by: cddbd v1.5.2PL0 Copyright (c) Steve Scherf et al.
# Submitted via: CDex 2.14
#
DISCID=d70e2710
DTITLE=Louis Armstrong - Louis Armstrong
DYEAR=1900
DGENRE=Jazz
TTITLE0=Hello Dolly!
TTITLE1=When The Saints Go Marchin' In
TTITLE2=Alligator Crawl
TTITLE3=The Gipsy
TTITLE4=New Orleans Funtion
TTITLE5=I've Got A Feeling I'm Falling
TTITLE6=Struttin' With Some Barbeque
TTITLE7=C'est Si Bon
TTITLE8=La Vie En Rose
TTITLE9=Someday
TTITLE10=When It's Sleepy Time Down South
TTITLE11=Black And Blue
TTITLE12=High Society
TTITLE13=A Kiss To Build A Dream On
TTITLE14=On The Sunny Side Of The Street
TTITLE15=Only You
EXTD=
EXTT0=
EXTT1=
EXTT2=
EXTT3=
EXTT4=
EXTT5=
EXTT6=
EXTT7=
EXTT8=
EXTT9=
EXTT10=
EXTT11=
EXTT12=
EXTT13=
EXTT14=
EXTT15=
PLAYORDER=
